<svg width="1904" height="1162" viewBox="0 0 1904 1162" fill="none" xmlns="http://www.w3.org/2000/svg">
<g clip-path="url(#clip0_1_2)">
<rect width="1904" height="1162" fill="#DADADA"/>
<path d="M165.049 879.988C162.538 879.598 150.415 877.854 136.189 877.854C121.962 877.854 109.84 879.598 107.329 879.988C105.895 880.193 105.321 879.003 106.421 878.285C107.425 877.669 136.189 858.873 136.189 858.873L165.933 878.285C167.057 879.003 166.507 880.214 165.049 879.988ZM115.363 1001.98C115.363 1001.98 113.833 1002.45 113.45 1003.6C119.476 1007.56 123.612 1016.61 136.189 1016.61C148.766 1016.61 152.926 1007.58 158.928 1003.58C158.545 1002.43 157.015 1001.98 157.015 1001.98C157.015 1001.98 149.124 1003.56 136.189 1003.56C123.23 1003.56 115.363 1001.98 115.363 1001.98ZM136.189 986.755C132.698 986.755 131.933 985.627 129.542 985.627C127.294 985.627 122.871 987.186 121.915 988.623C121.976 989.353 122.331 990.042 122.919 990.572C127.988 991.208 130.307 993.65 136.189 993.65C142.095 993.65 144.39 991.208 149.483 990.572C150.055 990.035 150.401 989.349 150.463 988.623C149.507 987.186 145.107 985.647 142.836 985.627C140.445 985.627 139.68 986.755 136.189 986.755ZM422.8 1033.34C422.438 1039.19 421.832 1045.03 420.983 1050.84C388.465 1055.46 376.869 1030.61 343.586 1031.86C345.57 1037.91 347.172 1044.09 348.44 1050.39C375.889 1050.39 386.935 1072.41 417.492 1069.17C415.89 1075.9 413.954 1082.54 411.706 1089.07C387.557 1091.12 379.069 1070.52 351.118 1071.09C351.357 1074.5 351.476 1077.95 351.476 1081.44L351.357 1087.18L405.633 1104.95C402.793 1111.55 399.626 1118.04 396.14 1124.41C379.834 1123.65 374.215 1105.69 349.396 1107.11C348.653 1111.68 347.712 1116.24 346.575 1120.75C368.118 1119.46 372.756 1136.49 388.178 1137.87C384.249 1144.02 380.021 1150.02 375.506 1155.86C366.372 1151.66 358.434 1138.98 341.075 1138.2C342.872 1133.47 344.436 1128.67 345.762 1123.83C330.363 1123.83 312.766 1118.7 298.037 1107.17C302.819 1083.78 260.546 1059.99 260.546 1042.88C260.546 1024.29 271.497 1014.01 271.497 988.951C271.497 970.339 260.976 950.168 245.1 936.378C242.15 933.793 238.85 931.52 235.273 929.606C249.858 945.079 261.048 963.444 261.048 984.703C261.048 1008.3 248.256 1020.76 248.256 1042.55C248.256 1064.32 285.388 1083.18 285.388 1105.63C285.388 1114.45 282.089 1123.07 271.234 1140.04C287.899 1154.32 309.609 1162.12 323.597 1162.12C328.14 1162.12 330.603 1160.93 332.229 1157.87C333.632 1155.23 334.964 1152.55 336.221 1149.85C351.285 1150.34 358.219 1162.1 366.564 1166.8C361.973 1172.1 357.167 1177.18 352.122 1182.11C346.527 1176.79 338.995 1167.85 327.973 1165.36C326.011 1168.65 323.938 1171.89 321.756 1175.07C331.224 1177.29 337.704 1185.49 342.725 1190.89C337.31 1195.71 331.67 1200.34 325.821 1204.76C322.162 1199.86 316.448 1193.66 310.04 1190.32C307.686 1193.05 305.238 1195.72 302.699 1198.32C308.127 1201.5 312.933 1207.18 316.065 1211.82C309.299 1216.48 302.293 1220.91 295.024 1225.06C291.438 1200.02 251.651 1182.89 262.387 1153.85C258.872 1158.98 254.664 1165.36 254.664 1173.08C254.664 1194.09 280.726 1210.76 282.83 1231.65C277.426 1234.42 271.879 1237.02 266.26 1239.5C265.304 1216.54 237.712 1191.43 237.712 1172.61C237.712 1151.57 269.799 1130.44 269.799 1105.63C269.799 1080.8 232.762 1063.58 232.762 1041.79C232.762 1020 248.519 1007.46 248.519 979.512C248.519 959.053 237.186 938.348 219.683 925.133C216.716 922.831 213.422 920.859 209.88 919.264C226.378 936.255 235.942 951.686 235.942 975.059C235.942 1001.32 217.89 1015.89 217.89 1041.63C217.89 1067.36 254.233 1081.64 254.233 1105.65C254.233 1129.62 220.401 1149.81 220.401 1174.45C220.401 1196.86 250.217 1219.23 250.671 1245.8C244.133 1248.25 237.489 1250.48 230.754 1252.49C234.555 1225.63 200.986 1197.93 200.986 1176.01C200.986 1152.07 236.062 1131.46 236.062 1105.63C236.062 1079.77 200.412 1067.77 200.412 1041.24C200.412 1014.72 222.29 1000.05 222.29 970.75C222.218 959.905 219.27 949.218 213.669 939.497C208.068 929.776 199.961 921.278 189.963 914.647L188.744 913.867C186.926 912.718 185.444 914.093 186.735 915.468C200.316 930.037 207.585 944.75 207.585 966.563C207.585 993.342 182.431 1015.11 182.431 1041.09C182.431 1071.73 216.192 1080.49 216.192 1105.63C216.192 1130.77 179.992 1150.88 179.992 1177.55C179.992 1202.3 214.256 1229.78 208.374 1258.34C201.469 1259.88 194.498 1261.2 187.476 1262.28C193.908 1226.72 160.29 1201.17 160.29 1177.9C160.29 1152.7 197.782 1130.25 197.782 1105.63C197.782 1082.42 170.883 1074.83 167.344 1051.07C166.866 1047.82 163.829 1045.42 159.645 1046.02C154.169 1046.88 147.164 1049.96 136.165 1049.96C125.166 1049.96 118.161 1046.88 112.685 1046.02C108.525 1045.42 105.488 1047.82 105.01 1051.07C101.471 1074.83 74.5485 1082.4 74.5485 1105.65C74.5485 1130.25 112.04 1152.7 112.04 1177.88C112.04 1201.17 78.4458 1226.72 84.8538 1262.28C77.8338 1261.19 70.8632 1259.88 63.9563 1258.34C58.0744 1229.78 92.3377 1202.32 92.3377 1177.55C92.3377 1150.88 56.1376 1130.77 56.1376 1105.63C56.1376 1080.49 89.8988 1071.73 89.8988 1041.09C89.8988 1015.11 64.7453 993.363 64.7453 966.543C64.7453 944.75 72.014 930.017 85.6189 915.447C86.8861 914.093 85.4037 912.718 83.5865 913.867L82.391 914.647C72.3983 921.272 64.2957 929.763 58.6986 939.477C53.1014 949.191 50.1568 959.872 50.0884 970.708C50.0884 1000.01 71.9662 1014.68 71.9662 1041.22C71.9662 1067.73 36.2922 1079.75 36.2922 1105.61C36.2922 1131.42 71.3684 1152.03 71.3684 1175.99C71.3684 1197.91 37.8224 1225.61 41.6242 1252.47C34.8898 1250.46 28.246 1248.23 21.707 1245.78C22.1613 1219.19 51.9534 1196.82 51.9534 1174.41C51.9534 1149.79 18.1443 1129.58 18.1443 1105.61C18.1443 1081.62 54.4639 1067.32 54.4639 1041.59C54.4639 1015.87 36.4356 1001.28 36.4356 975.018C36.4356 951.625 45.9997 936.234 62.4978 919.243C58.9501 920.822 55.6551 922.788 52.6946 925.092C43.7786 931.959 36.6142 940.335 31.6518 949.694C26.6894 959.052 24.0361 969.19 23.8589 979.471C23.8589 1007.42 39.6157 1019.96 39.6157 1041.75C39.6157 1063.56 2.57881 1080.74 2.57881 1105.59C2.57881 1130.42 34.6663 1151.55 34.6663 1172.57C34.6663 1191.4 7.05002 1216.52 6.11752 1239.46C0.494003 1237 -5.03232 1234.38 -10.4522 1231.6C-8.37206 1210.73 17.714 1194.05 17.714 1173.04C17.714 1165.34 13.5058 1158.94 9.99097 1153.83C20.7027 1182.85 -19.0838 1200 -22.6703 1225.02C-29.9119 1220.88 -36.9327 1216.46 -43.7113 1211.78C-40.5791 1207.16 -35.7731 1201.46 -30.3216 1198.3C-32.8738 1195.69 -35.3298 1193.02 -37.6859 1190.28C-44.0939 1193.62 -49.8084 1199.84 -53.4667 1204.72C-59.314 1200.3 -64.9534 1195.68 -70.3712 1190.87C-65.35 1185.45 -58.8465 1177.25 -49.378 1175.03C-51.5704 1171.85 -53.6515 1168.61 -55.6186 1165.32C-66.6173 1167.83 -74.1729 1176.77 -79.7679 1182.09C-84.8069 1177.15 -89.6166 1172.04 -94.1857 1166.78C-85.8171 1162.06 -78.931 1150.3 -63.8437 1149.81C-62.5764 1152.5 -61.2614 1155.19 -59.8507 1157.81C-58.2248 1160.89 -55.786 1162.08 -51.243 1162.08C-37.2317 1162.08 -15.5451 1154.28 1.12029 1140C-9.71103 1123.05 -12.9867 1114.43 -12.9867 1105.59C-12.9867 1083.14 24.1219 1064.3 24.1219 1042.51C24.1219 1020.74 11.3299 1008.28 11.3299 984.683C11.3299 963.403 22.5199 945.058 37.1051 929.565C33.5189 931.478 30.2118 933.751 27.2541 936.337C11.4017 950.168 0.857285 970.339 0.857285 988.931C0.857285 1013.99 11.832 1024.29 11.832 1042.88C11.832 1059.99 -30.4412 1083.78 -25.6591 1107.15C-40.4117 1118.68 -58.0096 1123.83 -73.4078 1123.83C-72.0721 1128.67 -70.5168 1133.46 -68.7453 1138.2C-86.0802 1138.98 -93.9944 1151.66 -103.176 1155.84C-107.694 1150.01 -111.922 1144.01 -115.848 1137.87C-100.402 1136.47 -95.7638 1119.46 -74.1968 1120.75C-75.3331 1116.24 -76.2742 1111.68 -77.0182 1107.11C-101.837 1105.67 -107.48 1123.65 -123.787 1124.41C-127.264 1118.04 -130.423 1111.55 -133.255 1104.95L-79.0027 1087.16L-79.1223 1081.42C-79.1223 1077.93 -79.0027 1074.48 -78.7875 1071.05C-106.715 1070.5 -115.227 1091.08 -139.376 1089.05C-141.615 1082.49 -143.538 1075.84 -145.138 1069.14C-114.629 1072.37 -103.535 1050.35 -76.0857 1050.37C-74.8586 1044.12 -73.2464 1037.92 -71.2558 1031.82C-104.539 1030.59 -116.159 1055.42 -148.629 1050.8C-149.482 1044.99 -150.088 1039.16 -150.446 1033.32C-112.668 1036.93 -98.5374 1010.29 -64.1306 1013.55C-60.9087 1006.53 -57.1548 999.698 -52.8928 993.096C-96.0029 986.591 -110.636 1017.54 -150.757 1012.8C-146.406 879.988 -19.6098 773.487 136.189 773.487C291.988 773.487 418.783 879.988 423.111 1012.82C382.966 1017.58 368.357 986.632 325.247 993.117C329.479 999.683 333.257 1006.54 336.485 1013.58C370.867 1010.31 385.022 1036.97 422.8 1033.34ZM12.8124 930.017C-8.32423 922.609 -33.9081 924.312 -55.762 936.378C-59.1573 918.915 -70.1799 903.402 -85.8889 894.065C-88.0647 892.772 -90.3123 893.983 -90.121 896.158C-86.7975 933.013 -111.927 965.024 -142.795 993.178C-110.971 1001.39 -83.8804 966.215 -42.6114 978.486C-27.7711 959.539 -8.98145 943.107 12.8124 930.017ZM136.189 907.711C109.553 907.711 87.2209 920.639 81.3868 937.363C80.9086 938.635 81.5303 939.477 83.2518 938.799C88.0338 936.952 93.5093 936.07 99.439 936.07C110.294 936.07 119.882 939.497 125.549 945.448C128.036 952.548 128.251 962.829 125.429 968.677C120.958 967.815 119.332 964.86 114.957 964.86C110.605 964.86 107.21 967.487 99.7976 967.487C92.3855 967.487 91.5247 964.491 86.647 964.491C80.9086 964.491 79.8565 969.559 79.8565 975.264C79.8565 1000.75 107.162 1035.8 136.189 1035.8C165.192 1035.8 192.474 1000.75 192.474 975.264C192.474 969.539 191.111 964.655 185.133 963.978C181.607 966.467 177.114 967.72 172.556 967.487C165.144 967.487 163.112 964.86 158.736 964.86C153.476 964.86 154.002 974.402 147.738 974.915C143.553 966.317 143.362 955.277 146.829 945.448C152.496 939.497 162.06 936.07 172.939 936.07C178.869 936.07 184.344 936.973 189.102 938.799C190.824 939.477 191.421 938.635 190.991 937.363C185.157 920.659 162.825 907.711 136.189 907.711ZM178.606 944.278C172.222 944.278 164.738 945.961 160.027 950.455C159.516 951.854 159.584 953.362 160.219 954.723C171.815 951.317 182.025 951.173 186.974 955.913C189.604 953.861 190.441 952.014 190.441 949.88C190.441 946.577 186.52 944.278 178.606 944.278ZM85.4037 955.913C90.9987 951.112 102.786 951.317 115.005 955.195C115.554 949.983 104.651 944.258 93.7723 944.258C85.858 944.258 81.9367 946.556 81.9367 949.88C81.9367 952.014 82.7736 953.882 85.4037 955.913ZM269.034 869.666C247.993 870.959 229.749 877.156 214.949 887.478C220.966 872.783 229.155 858.811 239.314 845.904C212.534 848.346 190.13 856.759 173.8 871.123L160.984 842.333L189.389 820.828L151.372 818.509L136.189 788.159L121.006 818.53L82.9888 820.828L111.37 842.354L98.6021 871.123C82.2476 856.759 59.8676 848.346 33.0882 845.904C43.2198 858.818 51.3913 872.789 57.4049 887.478C42.6284 877.156 24.361 870.959 3.32002 869.666C15.9446 883.6 27.1346 898.436 35.4075 914.401C36.3639 916.206 38.3724 916.802 40.5243 915.858C70.2419 903.187 102.982 896.612 136.165 896.651C170.548 896.651 202.994 903.586 231.83 915.858C234.005 916.802 236.014 916.206 236.946 914.421C245.243 898.436 256.433 883.6 269.058 869.687L269.034 869.666ZM314.989 978.506C356.258 966.235 383.372 1001.39 415.173 993.199C384.305 965.045 359.199 933.033 362.523 896.158C362.714 894.003 360.443 892.772 358.291 894.065C342.582 903.422 331.535 918.936 328.164 936.378C306.31 924.332 280.726 922.629 259.589 930.037C281.372 943.132 300.153 959.563 314.989 978.506Z" fill="black" fill-opacity="0.1"/>
<circle cx="72" cy="43" r="320" fill="#035D38"/>
<circle cx="1363" cy="965" r="643" fill="#035D38"/>
</g>
<defs>
<clipPath id="clip0_1_2">
<rect width="1904" height="1162" fill="white"/>
</clipPath>
</defs>
</svg>
